<svg version="1.1" id="Layer_1" xmlns="http://www.w3.org/2000/svg" xmlns:xlink="http://www.w3.org/1999/xlink" x="0px" y="0px"
	 width="100%" viewBox="0 0 1024 1024" enable-background="new 0 0 1024 1024" xml:space="preserve">
<path fill="#000000" opacity="1.000000" stroke="none" 
	d="
M856.252747,695.000000 
	C856.257202,746.660583 856.263977,797.821167 856.262268,848.981750 
	C856.262024,856.251221 856.242981,856.274658 849.187683,856.274658 
	C625.047546,856.275940 400.907471,856.273071 176.767349,856.265991 
	C169.750443,856.265808 169.744904,856.241943 169.744705,848.892700 
	C169.738617,624.752625 169.733490,400.612488 169.729431,176.472397 
	C169.729309,169.737625 169.735367,169.725723 177.295456,169.725632 
	C372.105713,169.723236 566.916016,169.723434 761.726257,169.723389 
	C790.389526,169.723373 819.052795,169.726364 847.716064,169.723434 
	C856.268982,169.722565 856.265747,169.715485 856.265503,178.062500 
	C856.260620,350.208344 856.256592,522.354187 856.252747,695.000000 
M600.500000,838.760010 
	C677.485657,838.765015 754.471252,838.769958 831.456909,838.775146 
	C838.720215,838.775635 838.744873,838.776550 838.744812,831.833740 
	C838.744019,619.205200 838.738770,406.576660 838.729492,193.948120 
	C838.729187,187.286575 838.706238,187.266937 832.202087,187.266785 
	C619.406921,187.261734 406.611755,187.259949 193.816574,187.262695 
	C187.304337,187.262772 187.289780,187.287567 187.289658,193.939713 
	C187.286026,406.234985 187.284576,618.530212 187.287582,830.825500 
	C187.287689,838.735046 187.309906,838.749878 195.072540,838.750183 
	C329.881683,838.755615 464.690857,838.757141 600.500000,838.760010 
z"/>
<path fill="#000000" opacity="1.000000" stroke="none" 
	d="
M688.565918,319.999878 
	C688.348755,295.375916 689.012878,271.248871 688.224854,247.125565 
	C688.006897,240.452835 689.795105,238.747330 696.309387,238.724182 
	C706.127380,238.689301 715.945862,238.672852 725.763672,238.731873 
	C731.604431,238.766983 733.265930,240.353790 733.272217,246.116318 
	C733.309570,280.230164 733.304016,314.344116 733.265747,348.457947 
	C733.259521,354.014893 731.361206,355.964111 725.756897,356.023773 
	C715.773560,356.130096 705.787292,356.124237 695.803955,356.013397 
	C690.012329,355.949127 688.470825,354.182953 688.497986,348.455902 
	C688.542297,339.137329 688.545715,329.818573 688.565918,319.999878 
z"/>
<path fill="#000000" opacity="1.000000" stroke="none" 
	d="
M242.789734,621.000000 
	C242.804016,613.673584 242.823059,606.847229 242.830551,600.020813 
	C242.833237,597.582886 243.457458,595.685974 246.421646,595.765503 
	C261.046417,596.157593 275.742065,594.480774 290.292145,596.673584 
	C304.271393,598.780457 313.412689,606.888550 315.725739,619.889343 
	C318.159698,633.569885 315.828552,645.473877 302.881165,654.001343 
	C302.069641,654.535889 301.352539,655.213806 300.087280,656.229980 
	C305.955353,666.244995 311.783752,676.192261 318.247314,687.223633 
	C309.619934,687.223633 302.228699,687.289429 294.840057,687.179016 
	C292.903168,687.150085 292.277191,685.244751 291.456146,683.833618 
	C287.438263,676.928101 283.484772,669.984924 279.442322,663.093872 
	C277.490082,659.765869 268.848328,657.757751 265.720062,659.803589 
	C264.199951,660.797791 264.389496,662.380310 264.381042,663.847534 
	C264.345612,670.007812 264.183228,676.175049 264.415619,682.326538 
	C264.565826,686.303040 262.992371,687.685791 259.150116,687.442993 
	C255.501587,687.212524 251.812927,687.186829 248.168015,687.442810 
	C243.983826,687.736572 242.714111,685.996826 242.742447,681.939087 
	C242.883041,661.793579 242.796478,641.646545 242.789734,621.000000 
M293.081604,634.373230 
	C297.213196,623.898499 293.182617,616.571838 282.251282,614.856873 
	C279.969788,614.498901 277.626984,614.425781 275.311188,614.410339 
	C264.320465,614.337341 264.320312,614.360596 264.302277,625.500671 
	C264.276794,641.245972 264.276001,641.217041 280.132812,640.787781 
	C285.180511,640.651123 289.646301,639.428345 293.081604,634.373230 
z"/>
<path fill="#000000" opacity="1.000000" stroke="none" 
	d="
M615.018555,627.004883 
	C630.913025,612.911499 655.993591,613.382141 669.715637,627.735229 
	C677.087341,635.445984 679.257874,645.031006 679.800842,655.223572 
	C680.007141,659.096313 677.454224,659.322937 674.514893,659.312378 
	C660.184021,659.260681 645.852783,659.290039 631.521729,659.290771 
	C629.747986,659.290833 627.974304,659.290833 626.115662,659.290833 
	C628.029724,671.269165 642.387024,676.404968 653.147217,669.616821 
	C659.608154,665.541016 668.964478,664.296570 677.184998,666.419739 
	C676.446716,675.475220 662.895447,686.636475 649.433350,688.888916 
	C632.891846,691.656677 616.642212,684.902466 609.085632,671.263489 
	C601.287720,657.188843 603.608765,639.197449 615.018555,627.004883 
M653.986877,637.444641 
	C643.130188,629.898804 628.211792,634.016479 626.851990,645.174927 
	C637.351501,645.174927 647.815674,645.174927 658.486816,645.174927 
	C658.233398,641.728455 656.407288,639.818115 653.986877,637.444641 
z"/>
<path fill="#000000" opacity="1.000000" stroke="none" 
	d="
M317.894104,663.670898 
	C313.804962,645.173889 319.850647,629.791687 334.057800,621.882812 
	C349.465668,613.305664 370.945099,615.869873 383.111084,626.931274 
	C399.661713,641.979126 398.427948,679.120850 368.031342,687.523621 
	C354.537750,691.253784 341.606659,689.953979 329.989258,681.464478 
	C324.003571,677.090332 320.213470,671.100098 317.894104,663.670898 
M362.360748,670.035828 
	C369.536713,667.175598 372.504913,661.409668 373.339905,654.160156 
	C374.280579,645.993042 368.645538,637.569092 360.801361,635.436584 
	C351.330566,632.861816 341.920349,636.783691 338.687531,645.011597 
	C335.902802,652.099060 336.174011,659.219055 341.234253,665.212402 
	C346.642792,671.618286 353.836334,672.613464 362.360748,670.035828 
z"/>
<path fill="#000000" opacity="1.000000" stroke="none" 
	d="
M700.686707,625.376099 
	C705.478149,636.380432 710.104919,647.034058 714.879578,658.028259 
	C717.078857,656.700500 717.268311,654.815247 717.851929,653.224243 
	C721.520264,643.223999 725.242188,633.241638 728.740540,623.181824 
	C729.898376,619.852356 731.678833,618.404419 735.313782,618.589294 
	C740.721863,618.864319 746.154297,618.660583 751.345825,618.660583 
	C752.093506,621.296143 751.113892,622.750305 750.514587,624.256897 
	C741.533142,646.837524 732.542786,669.414612 723.516907,691.977539 
	C722.343811,694.910278 721.081055,697.819946 719.653748,700.635803 
	C715.699036,708.438293 709.153870,712.513428 700.553223,713.181458 
	C696.411865,713.503113 692.228760,713.249878 688.067932,713.371765 
	C685.087036,713.459167 683.782288,712.066650 683.859680,709.172363 
	C683.886353,708.173828 683.851318,707.173767 683.850098,706.174377 
	C683.837708,696.295471 683.838074,696.295532 693.707825,695.633179 
	C702.999207,695.009583 707.128662,688.222107 703.238464,679.816223 
	C694.847412,661.684937 686.376709,643.590515 678.008240,625.448853 
	C677.140564,623.567932 675.565979,621.790222 676.473572,618.734985 
	C682.753723,618.734985 689.201355,618.561462 695.633606,618.801941 
	C699.322083,618.939880 699.088501,622.777039 700.686707,625.376099 
z"/>
<path fill="#000000" opacity="1.000000" stroke="none" 
	d="
M447.399597,683.623047 
	C439.745270,689.002930 431.489594,690.425415 422.834717,688.839966 
	C408.741119,686.258240 400.485992,675.921143 399.898315,659.690491 
	C399.458710,647.549744 399.864471,635.380310 399.744720,623.225098 
	C399.710083,619.711792 401.210724,618.494324 404.557190,618.633728 
	C408.380768,618.792908 412.227112,618.857727 416.042908,618.625000 
	C419.884399,618.390625 420.953491,620.204895 420.917023,623.686951 
	C420.815918,633.344482 420.867249,643.003906 420.908264,652.662354 
	C420.918823,655.156189 420.962769,657.666931 421.252441,660.139282 
	C422.001648,666.533630 425.877869,670.479614 432.088074,671.391113 
	C437.424957,672.174438 443.249481,669.043701 445.632111,663.952209 
	C447.053650,660.914429 447.768311,657.706055 447.740295,654.288452 
	C447.657074,644.130920 447.838104,633.969849 447.643494,623.815369 
	C447.569000,619.930237 448.871674,618.347107 452.819580,618.615967 
	C456.466614,618.864380 460.151581,618.834167 463.804443,618.638611 
	C467.344757,618.449097 468.402405,620.001465 468.384766,623.362915 
	C468.280762,643.179199 468.268555,662.996460 468.358765,682.812744 
	C468.374664,686.309509 466.989990,687.673096 463.613403,687.409912 
	C462.124084,687.293762 460.603760,687.269531 459.121429,687.427673 
	C454.967926,687.870789 451.775024,686.996094 451.429565,682.238464 
	C449.595154,681.423523 448.787445,682.832397 447.399597,683.623047 
z"/>
<path fill="#000000" opacity="1.000000" stroke="none" 
	d="
M533.193115,629.056396 
	C537.976318,639.596436 537.561584,640.275391 526.717468,640.260620 
	C524.718140,640.257935 522.717224,640.192749 520.719849,640.251526 
	C518.384583,640.320190 516.812744,639.751404 515.602112,637.318848 
	C513.110229,632.311584 504.721832,630.437927 499.891846,633.431580 
	C496.549408,635.503418 496.277374,639.249451 499.383911,641.706970 
	C501.664764,643.511292 504.477142,644.099182 507.236908,644.738831 
	C513.072021,646.091431 519.016602,647.127136 524.466553,649.732544 
	C532.431580,653.540283 537.542419,659.371887 537.281494,668.771057 
	C537.058716,676.795593 531.781372,683.874023 523.072205,686.839661 
	C512.147278,690.559753 501.115936,690.547729 490.352112,686.083679 
	C482.767853,682.938293 477.981293,677.325745 476.374817,669.106079 
	C475.783447,666.080139 476.688049,664.641846 479.842377,664.697693 
	C482.673798,664.747803 485.508789,664.757812 488.338989,664.675110 
	C492.365997,664.557556 495.697113,664.474548 497.868530,669.412781 
	C500.087708,674.459839 510.727966,675.249146 514.878540,671.499268 
	C517.656799,668.989258 517.269165,665.489624 513.743652,663.133179 
	C510.051270,660.665283 505.683044,660.146362 501.444031,659.304321 
	C495.532410,658.129944 489.759003,656.536560 484.731598,653.039124 
	C474.199707,645.712341 474.108612,629.633423 484.522308,622.198730 
	C494.994720,614.722107 516.907715,614.888306 527.326294,622.500610 
	C529.649780,624.198242 531.558533,626.249268 533.193115,629.056396 
z"/>
<path fill="#000000" opacity="1.000000" stroke="none" 
	d="
M592.926270,640.260010 
	C590.113525,640.255310 587.778748,640.161926 585.452942,640.266846 
	C582.892578,640.382385 581.258179,639.628235 579.929199,637.119568 
	C577.318176,632.190491 568.901367,630.494568 564.108826,633.546631 
	C560.354431,635.937622 560.466187,639.978394 564.523804,642.254517 
	C568.042358,644.228088 572.046753,644.840210 575.939697,645.717407 
	C581.634705,647.000732 587.268738,648.480774 592.279968,651.637695 
	C604.821350,659.538513 605.152710,676.985413 592.299988,684.240906 
	C578.541809,692.007568 564.185181,691.530762 550.446411,683.657349 
	C545.220947,680.662781 541.969482,675.732971 540.812012,669.669128 
	C540.200928,666.468201 541.085266,664.485168 544.867004,664.681702 
	C547.855286,664.836975 550.867981,664.845032 553.853210,664.655396 
	C557.600586,664.417236 560.204529,665.038574 562.123108,669.082214 
	C564.554260,674.206360 574.629883,675.387024 579.036926,671.736328 
	C581.818604,669.432068 581.521606,665.625183 578.240723,663.286438 
	C574.598755,660.690247 570.218262,660.188110 565.992981,659.344055 
	C560.743713,658.295532 555.640686,656.869873 550.953125,654.209412 
	C544.626282,650.618469 541.178772,645.173096 541.252258,637.903809 
	C541.330383,630.172546 544.432190,623.802429 551.756531,620.570923 
	C564.466919,614.962891 577.284790,615.032043 589.813171,621.294983 
	C594.313538,623.544739 597.199158,627.471191 599.005493,632.097351 
	C601.655762,638.884521 600.733032,640.158020 592.926270,640.260010 
z"/>
<path fill="#000000" opacity="1.000000" stroke="none" 
	d="
M760.695312,239.175674 
	C773.609253,237.520554 783.417847,241.959122 789.895081,252.738419 
	C795.739380,262.464447 794.545410,274.498352 787.433899,283.647369 
	C780.359558,292.748688 767.928894,296.349670 756.894653,292.494171 
	C745.864746,288.640137 738.696167,278.676086 738.620728,267.093903 
	C738.528259,252.899399 746.387085,242.806778 760.695312,239.175674 
z"/>
<path fill="#000000" opacity="1.000000" stroke="none" 
	d="
M248.345367,771.944458 
	C251.507996,771.269226 252.844147,772.819153 254.247345,774.991943 
	C258.595459,781.725159 268.317932,784.185852 276.598236,780.916382 
	C283.941498,778.016785 287.018250,771.614563 285.305023,761.914307 
	C277.440948,767.912476 268.887024,770.094666 259.470428,767.103210 
	C254.708466,765.590515 250.894348,762.703308 248.122650,758.532776 
	C241.501724,748.570557 242.375885,735.354553 250.162628,727.079163 
	C259.083984,717.598145 271.002594,717.448303 285.958801,726.652710 
	C287.165588,725.860168 286.598633,724.537109 286.838074,723.477295 
	C287.231476,721.735901 288.175995,720.847534 289.976501,720.994263 
	C291.982422,721.157593 292.301453,722.632263 292.311859,724.212769 
	C292.353546,730.544250 292.363739,736.876038 292.361420,743.207703 
	C292.358307,751.705627 292.522858,760.209229 292.267456,768.699951 
	C291.969421,778.607788 284.510498,786.284424 273.911011,788.079834 
	C262.629761,789.990723 251.597488,785.115601 248.021927,776.527100 
	C247.447876,775.148132 246.052948,773.559265 248.345367,771.944458 
M285.808868,749.175415 
	C288.480225,738.364563 282.848938,728.382385 272.974884,726.425415 
	C261.915100,724.233459 252.308777,730.010559 250.465332,739.962463 
	C248.617172,749.939880 253.506927,758.763489 262.317719,761.350220 
	C272.693878,764.396545 281.589203,760.048828 285.808868,749.175415 
z"/>
<path fill="#000000" opacity="1.000000" stroke="none" 
	d="
M493.711243,759.527954 
	C483.329041,772.659790 468.769470,773.762268 454.130981,762.086365 
	C454.130981,767.575623 454.138611,772.435242 454.127533,777.294861 
	C454.122589,779.458984 454.124207,781.624634 454.041931,783.786499 
	C453.960480,785.927612 452.977570,787.213989 450.634247,787.147034 
	C448.469421,787.085083 447.788086,785.778870 447.730347,783.882751 
	C447.710114,783.217102 447.681732,782.551331 447.681580,781.885620 
	C447.677185,763.236755 447.673492,744.587891 447.680878,725.939026 
	C447.681274,724.942322 447.692749,723.931519 447.852722,722.952393 
	C448.073273,721.602783 449.048706,721.011047 450.343567,720.973511 
	C451.626923,720.936218 452.717499,721.439209 452.999207,722.755981 
	C453.335388,724.327454 453.429535,725.950562 453.614990,727.442566 
	C454.907166,727.809631 455.360565,726.987976 455.972351,726.486511 
	C466.201630,718.101624 479.036255,717.445068 488.592804,724.817871 
	C497.566284,731.740723 500.416046,745.158752 495.320831,756.576172 
	C494.915100,757.485352 494.391266,758.341797 493.711243,759.527954 
M491.601868,742.856995 
	C491.430969,742.046509 491.285095,741.229797 491.085327,740.426514 
	C488.923187,731.730957 483.249817,726.778381 474.791168,726.190430 
	C465.277679,725.529175 458.456512,729.262268 455.323730,736.844604 
	C452.074371,744.709229 454.127869,754.608337 460.243378,759.700134 
	C466.529266,764.933960 473.767639,765.176758 480.891724,762.272339 
	C488.979492,758.975098 491.589355,751.934570 491.601868,742.856995 
z"/>
<path fill="#000000" opacity="1.000000" stroke="none" 
	d="
M502.868042,747.644165 
	C502.377808,726.578430 518.904663,714.385315 537.321777,721.744995 
	C545.850830,725.153259 552.301208,735.226929 551.960632,744.338013 
	C551.837036,747.645569 549.680176,747.423401 547.455505,747.419556 
	C536.799683,747.401123 526.143860,747.401184 515.488037,747.395020 
	C513.693970,747.393921 511.899872,747.394836 510.159973,747.394836 
	C509.725739,753.966309 513.075562,759.428467 518.835327,762.221252 
	C526.424866,765.901306 536.033142,764.021301 541.685547,757.750183 
	C544.672791,754.435974 544.672791,754.435974 549.574524,755.358948 
	C549.570618,759.243469 546.921753,761.632874 544.404114,763.869934 
	C531.430054,775.397766 505.834930,771.761414 502.868042,747.644165 
M513.349731,731.881592 
	C511.338959,734.562805 509.829285,737.429565 509.779938,741.384766 
	C521.622009,741.384766 533.244812,741.384766 545.381470,741.384766 
	C544.165894,734.657654 541.163757,729.679382 535.067993,727.436096 
	C527.383606,724.608093 520.039307,725.328796 513.349731,731.881592 
z"/>
<path fill="#000000" opacity="1.000000" stroke="none" 
	d="
M379.660950,758.438538 
	C371.270081,770.236572 356.339142,773.675720 344.653442,766.767700 
	C333.765808,760.331299 329.673523,745.709839 335.315247,733.402832 
	C340.434998,722.234619 353.902924,716.985291 366.723816,721.160889 
	C378.426697,724.972412 385.438873,737.359985 382.854004,749.704895 
	C382.239349,752.640381 381.377747,755.501770 379.660950,758.438538 
M375.724182,751.974670 
	C377.911194,744.298767 377.401093,737.025208 371.514465,731.131042 
	C365.892761,725.502197 358.760864,724.958618 351.535095,726.977356 
	C343.134338,729.324402 338.824280,736.730408 339.326233,746.885864 
	C339.730499,755.065063 345.612396,762.094543 353.288757,763.572632 
	C363.276276,765.495605 371.147949,761.652161 375.724182,751.974670 
z"/>
<path fill="#000000" opacity="1.000000" stroke="none" 
	d="
M411.047729,770.227844 
	C398.294098,768.591614 391.893860,761.544312 391.621552,749.294922 
	C391.447540,741.469116 391.230103,733.643433 391.161377,725.816528 
	C391.141083,723.504089 391.152679,720.792175 394.640625,720.964539 
	C397.960175,721.128601 397.257690,723.790405 397.367004,725.839783 
	C397.827118,734.466614 396.334076,743.174805 398.228973,751.732910 
	C400.217072,760.712036 405.102905,764.411377 413.737122,763.794678 
	C421.147736,763.265381 427.228271,757.232544 427.646637,749.267395 
	C428.048248,741.621826 427.793640,733.943237 427.919373,726.280762 
	C427.958893,723.872192 427.469055,720.833008 431.356445,720.934937 
	C434.980682,721.029907 434.314972,723.915894 434.324036,726.119812 
	C434.374786,738.450134 434.397400,750.781250 434.294159,763.110962 
	C434.276550,765.211243 435.400116,768.431274 431.973358,768.786377 
	C428.012299,769.196899 429.045929,765.684631 428.623047,763.427795 
	C428.568542,763.136780 428.350983,762.876343 428.018402,762.233398 
	C423.485870,767.038208 418.175842,770.151367 411.047729,770.227844 
z"/>
<path fill="#000000" opacity="1.000000" stroke="none" 
	d="
M312.210571,745.214111 
	C312.184113,752.018555 312.170776,758.350830 312.153625,764.683044 
	C312.147278,767.034180 311.793915,769.139832 308.706543,769.018188 
	C305.905212,768.907837 305.695709,766.898254 305.695099,764.778259 
	C305.691406,751.613586 305.682098,738.448914 305.702026,725.284241 
	C305.705048,723.278320 305.561829,720.953918 308.520538,721.001282 
	C311.441742,721.047974 311.203339,723.381042 311.310791,725.375916 
	C311.363312,726.351257 311.445953,727.325012 311.585968,729.302856 
	C316.131073,723.270691 321.768707,721.000061 328.340454,720.852173 
	C330.367493,720.806519 332.613739,720.672668 332.864777,723.497070 
	C333.139801,726.591064 330.870117,727.086792 328.580658,726.993591 
	C317.349487,726.536560 311.952911,735.171509 312.210571,745.214111 
z"/>
</svg>